<?xml version="1.0" encoding="UTF-8"?>
<svg id="Capa_1" data-name="Capa 1" xmlns="http://www.w3.org/2000/svg" viewBox="0 0 1080 1080">
  <defs>
    <style>
      .cls-1 {
        fill: #f87171;
      }

      .cls-2 {
        fill: #f8fafc;
      }
    </style>
  </defs>
  <rect class="cls-1" width="1080" height="1080"/>
  <g>
    <path class="cls-2" d="M344,569.61h159.66c2.79,0,5.47,1.08,7.48,3.02l.25.24c2.1,2.03,3.29,4.83,3.29,7.75v155.27c0,2.78-1.13,5.45-3.15,7.42h0c-2.02,1.97-4.76,3.08-7.62,3.08h-159.58c-2.87,0-5.63-1.08-7.69-3.02h0c-2.18-2.04-3.41-4.85-3.41-7.8v-155.2c0-2.95,1.21-5.78,3.35-7.81h0c2-1.9,4.66-2.96,7.42-2.96Z"/>
    <path class="cls-2" d="M576.09,333.61h159.66c2.79,0,5.47,1.08,7.48,3.02l.25.24c2.1,2.03,3.29,4.83,3.29,7.75v155.27c0,2.78-1.13,5.45-3.15,7.42h0c-2.02,1.97-4.76,3.08-7.62,3.08h-159.58c-2.87,0-5.63-1.08-7.69-3.02h0c-2.18-2.04-3.41-4.85-3.41-7.8v-155.2c0-2.95,1.21-5.78,3.35-7.81h0c2-1.9,4.66-2.96,7.42-2.96Z"/>
    <path class="cls-2" d="M490.64,487.59h98.65c1.72,0,3.38.67,4.62,1.87l.16.15c1.3,1.25,2.03,2.98,2.03,4.79v95.94c0,1.72-.7,3.37-1.95,4.58h0c-1.25,1.22-2.94,1.9-4.71,1.9h-98.6c-1.77,0-3.48-.67-4.75-1.86h0c-1.34-1.26-2.11-3-2.11-4.82v-95.9c0-1.82.75-3.57,2.07-4.83h0c1.24-1.18,2.88-1.83,4.58-1.83Z"/>
    <path class="cls-2" d="M514.35,344.38v159.66c0,2.79-1.08,5.47-3.02,7.48l-.24.25c-2.03,2.1-4.83,3.29-7.75,3.29h-155.27c-2.78,0-5.45-1.13-7.42-3.15h0c-1.97-2.02-3.08-4.76-3.08-7.62v-159.58c0-2.87,1.08-5.63,3.02-7.69h0c2.04-2.18,4.85-3.41,7.8-3.41h155.2c2.95,0,5.78,1.21,7.81,3.35h0c1.9,2,2.96,4.66,2.96,7.42Z"/>
    <path class="cls-2" d="M741.92,575.7v159.66c0,2.79-1.08,5.47-3.02,7.48l-.24.25c-2.03,2.1-4.83,3.29-7.75,3.29h-155.27c-2.78,0-5.45-1.13-7.42-3.15h0c-1.97-2.02-3.08-4.76-3.08-7.62v-159.58c0-2.87,1.08-5.63,3.02-7.69h0c2.04-2.18,4.85-3.41,7.8-3.41h155.2c2.95,0,5.78,1.21,7.81,3.35h0c1.9,2,2.96,4.66,2.96,7.42Z"/>
  </g>
</svg>