<?xml version="1.0" encoding="UTF-8"?>
<svg id="Capa_1" xmlns="http://www.w3.org/2000/svg" version="1.1" viewBox="0 0 635.18 589.82">
  <!-- Generator: Adobe Illustrator 30.5.1, SVG Export Plug-In . SVG Version: 2.1.4 Build 3)  -->
  <defs>
    <style>
      .st0 {
        fill: #0e1117;
      }

      .st1 {
        fill: #0bbf9a;
      }
    </style>
  </defs>
  <rect class="st0" x="45.37" y="45.37" width="45.36" height="45.38"/>
  <rect class="st0" x="90.73" width="158.8" height="45.38"/>
  <rect class="st0" x="249.53" y="45.37" width="45.38" height="45.38"/>
  <rect class="st0" x="294.91" y="90.75" width="45.36" height="45.36"/>
  <rect class="st0" y="90.75" width="45.38" height="181.48"/>
  <rect class="st0" x="45.37" y="272.23" width="45.36" height="45.36"/>
  <rect class="st0" x="90.73" y="317.59" width="45.38" height="45.38"/>
  <rect class="st0" x="136.11" y="362.97" width="45.36" height="45.36"/>
  <rect class="st0" x="181.47" y="408.33" width="45.38" height="45.38"/>
  <rect class="st0" x="226.85" y="453.71" width="45.36" height="45.36"/>
  <rect class="st0" x="544.44" y="45.37" width="45.36" height="45.38"/>
  <rect class="st0" x="385.65" width="158.8" height="45.38"/>
  <rect class="st0" x="340.27" y="45.37" width="45.38" height="45.38"/>
  <rect class="st0" x="589.8" y="90.75" width="45.38" height="181.48"/>
  <rect class="st0" x="544.44" y="272.23" width="45.36" height="45.36"/>
  <rect class="st0" x="499.07" y="317.59" width="45.38" height="45.38"/>
  <rect class="st0" x="453.7" y="362.97" width="45.36" height="45.36"/>
  <rect class="st0" x="408.33" y="408.33" width="45.38" height="45.38"/>
  <rect class="st0" x="362.95" y="453.71" width="45.38" height="45.36"/>
  <polygon class="st1" points="589.8 90.75 589.8 272.23 544.44 272.23 544.44 317.59 499.07 317.59 499.07 362.97 453.7 362.97 453.7 408.33 408.33 408.33 408.33 453.71 362.95 453.71 362.95 499.07 272.21 499.07 272.21 453.71 226.85 453.71 226.85 408.33 181.47 408.33 181.47 362.97 136.11 362.97 136.11 317.59 90.73 317.59 90.73 272.23 45.37 272.23 45.37 90.75 90.73 90.75 90.73 45.37 249.53 45.37 249.53 90.75 294.91 90.75 294.91 136.11 340.27 136.11 340.27 90.75 385.65 90.75 385.65 45.37 544.44 45.37 544.44 90.75 589.8 90.75"/>
  <polygon class="st0" points="362.95 499.07 362.95 544.45 340.27 544.45 340.27 589.82 294.91 589.82 294.91 544.45 272.21 544.45 272.21 499.07 362.95 499.07"/>
</svg>