<?xml version="1.0" encoding="UTF-8"?>
<svg id="Capa_1" data-name="Capa 1" xmlns="http://www.w3.org/2000/svg" viewBox="0 0 1080 1080">
  <defs>
    <style>
      .cls-1 {
        fill: #ef4444;
      }

      .cls-2 {
        fill: #f8fafc;
      }
    </style>
  </defs>
  <rect class="cls-1" width="1080" height="1080"/>
  <g>
    <path class="cls-2" d="M763.9,467.71h98.57c15.49,0,28.07,12.58,28.07,28.07v88.45c0,15.49-12.58,28.07-28.07,28.07h-98.57c-15.49,0-28.07-12.58-28.07-28.07v-88.45c0-15.49,12.58-28.07,28.07-28.07Z" transform="translate(1626.383 1080) rotate(-180)"/>
    <path class="cls-2" d="M401.35,467.71h98.57c15.49,0,28.07,12.58,28.07,28.07v88.45c0,15.49-12.58,28.07-28.07,28.07h-98.57c-15.49,0-28.07-12.58-28.07-28.07v-88.45c0-15.49,12.58-28.07,28.07-28.07Z" transform="translate(901.2766 1080) rotate(-180)"/>
    <path class="cls-2" d="M217.52,467.71h98.57c15.49,0,28.07,12.58,28.07,28.07v88.45c0,15.49-12.58,28.07-28.07,28.07h-98.57c-15.49,0-28.07-12.58-28.07-28.07v-88.45c0-15.49,12.58-28.07,28.07-28.07Z" transform="translate(533.617 1080) rotate(-180)"/>
  </g>
</svg>