<?xml version="1.0" encoding="UTF-8"?>
<svg id="Capa_1" data-name="Capa 1" xmlns="http://www.w3.org/2000/svg" viewBox="0 0 1080 1080">
  <defs>
    <style>
      .cls-1 {
        fill: #0bbf9a;
      }

      .cls-2 {
        fill: #f8fafc;
      }
    </style>
  </defs>
  <rect class="cls-1" y="0" width="1080" height="1080"/>
  <path class="cls-2" d="M694.46,568.03v88.45c0,15.5-12.56,28.07-28.06,28.07h-98.58c-15.26,0-27.68-12.18-28.05-27.35v-111.07c0-3.4-2.82-6.15-6.3-6.15h-121.44c-14.77-.82-26.49-13.04-26.49-28.02v-88.44c0-15.51,12.57-28.07,28.07-28.07h98.57c14.07,0,25.73,10.36,27.76,23.88v114.5c0,3.4,2.82,6.15,6.31,6.15h120.87c15.17.37,27.34,12.78,27.34,28.05Z"/>
</svg>