<?xml version="1.0" encoding="UTF-8"?>
<svg id="Capa_1" data-name="Capa 1" xmlns="http://www.w3.org/2000/svg" viewBox="0 0 1075.58 1075.58">
  <defs>
    <style>
      .cls-1 {
        fill: #f87171;
      }

      .cls-2 {
        fill: #f8fafc;
      }
    </style>
  </defs>
  <rect class="cls-1" x="-2.21" y="-2.21" width="1080" height="1080"/>
  <g>
    <path class="cls-2" d="M450.68,367.19h286.24c15.49,0,28.07,12.58,28.07,28.07v88.45c0,15.49-12.58,28.07-28.07,28.07h-286.24c-15.49,0-28.07-12.58-28.07-28.07v-88.45c0-15.49,12.58-28.07,28.07-28.07Z" transform="translate(1187.602 878.9628) rotate(-180)"/>
    <path class="cls-2" d="M338.66,563.8h98.57c15.49,0,28.07,12.58,28.07,28.07v88.45c0,15.49-12.58,28.07-28.07,28.07h-98.57c-15.49,0-28.07-12.58-28.07-28.07v-88.45c0-15.49,12.58-28.07,28.07-28.07Z"/>
  </g>
</svg>