<?xml version="1.0" encoding="UTF-8"?>
<svg id="Capa_1" data-name="Capa 1" xmlns="http://www.w3.org/2000/svg" viewBox="0 0 1080 1080">
  <defs>
    <style>
      .cls-1 {
        fill: #f87171;
      }

      .cls-2 {
        fill: #f8fafc;
      }
    </style>
  </defs>
  <rect class="cls-1" width="1080" height="1080"/>
  <g>
    <path class="cls-2" d="M518.17,467.71h286.24c15.49,0,28.07,12.58,28.07,28.07v88.45c0,15.49-12.58,28.07-28.07,28.07h-286.24c-15.49,0-28.07-12.58-28.07-28.07v-88.45c0-15.49,12.58-28.07,28.07-28.07Z" transform="translate(121.2861 1201.2861) rotate(-90)"/>
    <path class="cls-2" d="M369.43,467.71h98.57c15.49,0,28.07,12.58,28.07,28.07v88.45c0,15.49-12.58,28.07-28.07,28.07h-98.57c-15.49,0-28.07-12.58-28.07-28.07v-88.45c0-15.49,12.58-28.07,28.07-28.07Z" transform="translate(958.71 121.29) rotate(90)"/>
  </g>
</svg>