<svg width="24" height="24" viewBox="0 0 24 24" fill="none" xmlns="http://www.w3.org/2000/svg">
<path d="M19.5 12.5L19 18L17 20L14 21L7 20L5 18V10L7 8L9 6H11L13 10H15L16 9L19.5 12.5Z" fill="#0BBF9A"/>
<rect x="9" y="2" width="2" height="4" fill="black"/>
<rect x="7" y="6" width="2" height="2" fill="black"/>
<rect x="5" y="8" width="2" height="2" fill="black"/>
<rect x="13" y="10" width="2" height="2" fill="black"/>
<rect x="15" y="8" width="2" height="2" fill="black"/>
<rect x="17" y="10" width="2" height="2" fill="black"/>
<rect x="19" y="12" width="2" height="6" fill="black"/>
<rect x="3" y="10" width="2" height="8" fill="black"/>
<rect x="11" y="6" width="2" height="4" fill="black"/>
<rect x="17" y="18" width="2" height="2" fill="black"/>
<rect x="7" y="20" width="10" height="2" fill="black"/>
<rect x="5" y="18" width="2" height="2" fill="black"/>
<rect x="9" y="16" width="6" height="4" fill="black"/>
<rect x="11" y="14" width="2" height="3" fill="black"/>
</svg>
