<?xml version="1.0" encoding="UTF-8"?>
<svg id="Capa_1" data-name="Capa 1" xmlns="http://www.w3.org/2000/svg" viewBox="0 0 468.77 419.74">
  <defs>
    <style>
      .cls-1 {
        opacity: .3;
      }

      .cls-1, .cls-2, .cls-3, .cls-4 {
        fill: #f8fafc;
      }

      .cls-2 {
        opacity: .5;
      }

      .cls-4 {
        opacity: .8;
      }
    </style>
  </defs>
  <path class="cls-1" d="M125.47,89.21h66.65c10.47,0,18.98,8.5,18.98,18.98v59.8c0,10.47-8.5,18.98-18.98,18.98h-66.65c-10.47,0-18.98-8.5-18.98-18.98v-59.8c0-10.47,8.5-18.98,18.98-18.98Z"/>
  <path class="cls-3" d="M269.24,89.21h66.65c10.47,0,18.98,8.5,18.98,18.98v59.8c0,10.47-8.5,18.98-18.98,18.98h-66.65c-10.47,0-18.98-8.5-18.98-18.98v-59.8c0-10.47,8.5-18.98,18.98-18.98Z"/>
  <path class="cls-2" d="M125.47,232.78h66.65c10.47,0,18.98,8.5,18.98,18.98v59.8c0,10.47-8.5,18.98-18.98,18.98h-66.65c-10.47,0-18.98-8.5-18.98-18.98v-59.8c0-10.47,8.5-18.98,18.98-18.98Z"/>
  <path class="cls-4" d="M269.24,232.78h66.64c10.47,0,18.98,8.5,18.98,18.98v59.8c0,10.47-8.5,18.98-18.98,18.98h-66.65c-10.47,0-18.98-8.5-18.98-18.98v-59.8c0-10.47,8.5-18.98,18.98-18.98Z"/>
</svg>