<?xml version="1.0" encoding="UTF-8"?>
<svg xmlns="http://www.w3.org/2000/svg" xmlns:xlink="http://www.w3.org/1999/xlink" viewBox="0 0 1366 768">
  <defs>
    <style>
      .cls-1 {
        fill: #0e1117;
      }

      .cls-2 {
        fill: url(#Degradado_sin_nombre_55);
      }

      .cls-3 {
        fill: #f8fafc;
      }
    </style>
    <linearGradient id="Degradado_sin_nombre_55" data-name="Degradado sin nombre 55" x1="263.41" y1="465.09" x2="425.52" y2="302.98" gradientUnits="userSpaceOnUse">
      <stop offset=".07" stop-color="#0bbf9a"/>
      <stop offset=".41" stop-color="#0cc99d"/>
      <stop offset=".94" stop-color="#0fe3a7"/>
    </linearGradient>
  </defs>
  <rect class="cls-1" width="1366" height="768"/>
  <g id="Capa_1" data-name="Capa 1">
    <path class="cls-2" d="M435.66,407.37h-42.73c-.9,0-1.63-.73-1.63-1.63v-43.38c0-.9.73-1.63,1.63-1.63h42.66c1.24,0,2.24-1,2.24-2.24v-42.28c0-1.24-1-2.24-2.24-2.24h-42.12c-1.24,0-2.24,1-2.24,2.24v42.81c0,.9-.73,1.63-1.63,1.63h-43.44c-.9,0-1.63-.73-1.63-1.63v-42.9c0-1.24-1-2.24-2.24-2.24h-88.94c-1.24,0-2.24,1-2.24,2.24v42.28c0,1.24,1,2.24,2.24,2.24h89.56c.9,0,1.63.73,1.63,1.63v43.43c0,.9-.73,1.63-1.63,1.63h-89.56c-1.24,0-2.24,1-2.24,2.24v42.28c0,1.24,1,2.24,2.24,2.24h88.96c1.24,0,2.24-1,2.24-2.24v-42.82c0-.9.73-1.63,1.63-1.63h43.5c.9,0,1.63.73,1.63,1.63v42.82c0,1.24,1,2.24,2.24,2.24h42.12c1.24,0,2.24-1,2.24-2.24v-42.24c0-1.24-1-2.24-2.24-2.24Z"/>
    <g>
      <path class="cls-3" d="M632.18,439.98c0-1.46-1.73-2.25-2.79-1.24-9.32,8.88-24.93,15.33-45.32,15.33-30.22,0-52.41-16.31-52.41-48.55v-89.43c0-1.24,1.05-2.24,2.35-2.24h41.66c1.3,0,2.35,1,2.35,2.24v77.09c0,21.3,7.52,28.87,23.07,28.87,13.5,0,24-9.81,24-26.35v-79.61c0-1.24,1.05-2.24,2.35-2.24h41.72c1.3,0,2.35,1,2.35,2.24v135.68c0,1.24-1.05,2.24-2.35,2.24h-34.62c-1.3,0-2.35-1-2.35-2.24v-11.78Z"/>
      <path class="cls-3" d="M912.24,439.98c0-1.46-1.73-2.25-2.79-1.24-9.32,8.88-24.93,15.33-45.32,15.33-30.22,0-52.41-16.31-52.41-48.55v-89.43c0-1.24,1.05-2.24,2.35-2.24h41.66c1.3,0,2.35,1,2.35,2.24v77.09c0,21.3,7.52,28.87,23.07,28.87,13.5,0,24-9.81,24-26.35v-79.61c0-1.24,1.05-2.24,2.35-2.24h41.72c1.3,0,2.35,1,2.35,2.24v135.68c0,1.24-1.05,2.24-2.35,2.24h-34.62c-1.3,0-2.35-1-2.35-2.24v-11.78Z"/>
      <path class="cls-3" d="M1014.37,327.92c0,1.44,1.81,2.17,2.88,1.15,9.33-8.84,24.9-15.24,45.23-15.24,30.22,0,52.41,16.31,52.41,48.55v89.43c0,1.24-1.05,2.24-2.35,2.24h-41.66c-1.3,0-2.35-1-2.35-2.24v-77.09c0-21.3-7.52-28.87-23.07-28.87-13.5,0-24,9.81-24,26.35v79.61c0,1.24-1.05,2.24-2.35,2.24h-41.72c-1.3,0-2.35-1-2.35-2.24v-135.68c0-1.24,1.05-2.24,2.35-2.24h34.62c1.3,0,2.35,1,2.35,2.24v11.79Z"/>
      <path class="cls-3" d="M788.21,316.2c0-1.25-1.01-2.26-2.26-2.26h-6.98c-17.24,0-32.41,8.76-41.37,22.07-.93,1.38-3.06.75-3.06-.91v-18.89c0-1.25-1.01-2.26-2.26-2.26h-35.02c-1.25,0-2.26,1.01-2.26,2.26v135.7c0,1.25,1.01,2.26,2.26,2.26h35.02c1.25,0,2.26-1.01,2.26-2.26v-86.37c0-.93.75-1.69,1.69-1.69h49.73c1.25,0,2.26-1.01,2.26-2.26v-45.38Z"/>
    </g>
  </g>
</svg>