<?xml version="1.0" encoding="UTF-8"?>
<svg id="Capa_1" data-name="Capa 1" xmlns="http://www.w3.org/2000/svg" viewBox="0 0 512 512">
  <defs>
    <style>
      .cls-1 {
        fill: #0e1117;
      }
    </style>
  </defs>
  <path class="cls-1" d="M474.43,312.03h-102.4c-2.15,0-3.9-1.74-3.9-3.9v-103.95c0-2.15,1.74-3.9,3.9-3.9h102.21c2.97,0,5.37-2.41,5.37-5.37v-101.32c0-2.97-2.41-5.37-5.37-5.37h-100.92c-2.97,0-5.37,2.41-5.37,5.37v102.57c0,2.15-1.74,3.9-3.9,3.9h-104.08c-2.15,0-3.9-1.74-3.9-3.9v-102.79c0-2.97-2.41-5.37-5.37-5.37H37.57c-2.97,0-5.37,2.41-5.37,5.37v101.32c0,2.97,2.41,5.37,5.37,5.37h214.6c2.15,0,3.9,1.74,3.9,3.9v104.07c0,2.15-1.74,3.9-3.9,3.9H37.57c-2.97,0-5.37,2.41-5.37,5.37v101.32c0,2.97,2.41,5.37,5.37,5.37h213.16c2.97,0,5.37-2.41,5.37-5.37v-102.6c0-2.15,1.74-3.9,3.9-3.9h104.23c2.15,0,3.9,1.74,3.9,3.9v102.6c0,2.97,2.41,5.37,5.37,5.37h100.92c2.97,0,5.37-2.41,5.37-5.37v-101.22c0-2.97-2.41-5.37-5.37-5.37Z"/>
</svg>