<?xml version="1.0" encoding="UTF-8"?>
<svg id="Capa_1" data-name="Capa 1" xmlns="http://www.w3.org/2000/svg" viewBox="0 0 1080 1080">
  <defs>
    <style>
      .cls-1 {
        fill: #f8fafc;
      }

      .cls-2 {
        fill: #056653;
      }
    </style>
  </defs>
  <rect class="cls-2" width="1080" height="1080"/>
  <g>
    <path class="cls-1" d="M403.39,377.71h98.57c15.49,0,28.07,12.58,28.07,28.07v88.45c0,15.49-12.58,28.07-28.07,28.07h-98.57c-15.49,0-28.07-12.58-28.07-28.07v-88.45c0-15.49,12.58-28.07,28.07-28.07Z" transform="translate(-185.61 451.9) rotate(-45)"/>
    <path class="cls-1" d="M584.93,377.71h98.57c15.49,0,28.07,12.58,28.07,28.07v88.45c0,15.49-12.58,28.07-28.07,28.07h-98.57c-15.49,0-28.07-12.58-28.07-28.07v-88.45c0-15.49,12.58-28.07,28.07-28.07Z" transform="translate(-132.44 580.26) rotate(-45)"/>
    <path class="cls-1" d="M396.5,557.71h98.57c15.49,0,28.07,12.58,28.07,28.07v88.45c0,15.49-12.58,28.07-28.07,28.07h-98.57c-15.49,0-28.07-12.58-28.07-28.07v-88.45c0-15.49,12.58-28.07,28.07-28.07Z" transform="translate(-314.91 499.74) rotate(-45)"/>
    <path class="cls-1" d="M578.03,557.71h98.57c15.49,0,28.07,12.58,28.07,28.07v88.45c0,15.49-12.58,28.07-28.07,28.07h-98.57c-15.49,0-28.07-12.58-28.07-28.07v-88.45c0-15.49,12.58-28.07,28.07-28.07Z" transform="translate(-261.74 628.1) rotate(-45)"/>
  </g>
</svg>