<?xml version="1.0" encoding="UTF-8"?>
<svg id="Capa_1" data-name="Capa 1" xmlns="http://www.w3.org/2000/svg" viewBox="0 0 1080 1080">
  <defs>
    <style>
      .cls-1 {
        fill: #f8fafc;
      }

      .cls-2 {
        fill: #056653;
      }
    </style>
  </defs>
  <rect class="cls-2" y="0" width="1080" height="1080"/>
  <path class="cls-1" d="M617.36,368.63v88.45c0,15.5-12.57,28.06-28.07,28.06h-98.57c-15.51,0-28.07-12.56-28.07-28.07v-88.44c0-1.99.21-3.94.61-5.82h153.49c.4,1.88.61,3.83.61,5.82Z"/>
  <path class="cls-1" d="M617.36,622.92v88.45c0,1.28-.09,2.54-.26,3.78h-154.19c-.17-1.24-.26-2.5-.26-3.78v-88.45c0-15.5,12.56-28.07,28.07-28.07h98.57c15.5,0,28.07,12.57,28.07,28.07Z"/>
</svg>