<?xml version="1.0" encoding="UTF-8"?>
<svg id="Capa_1" data-name="Capa 1" xmlns="http://www.w3.org/2000/svg" viewBox="0 0 1080 1080">
  <defs>
    <style>
      .cls-1 {
        fill: #f8fafc;
      }

      .cls-2 {
        fill: #056653;
      }
    </style>
  </defs>
  <rect class="cls-2" y="0" width="1080" height="1080"/>
  <g>
    <path class="cls-1" d="M617.86,467.71h98.57c15.49,0,28.07,12.58,28.07,28.07v88.45c0,15.49-12.58,28.07-28.07,28.07h-98.57c-15.49,0-28.07-12.58-28.07-28.07v-88.45c0-15.49,12.58-28.07,28.07-28.07Z" transform="translate(1207.1489 -127.1489) rotate(90)"/>
    <path class="cls-1" d="M363.56,467.71h98.57c15.49,0,28.07,12.58,28.07,28.07v88.45c0,15.49-12.58,28.07-28.07,28.07h-98.57c-15.49,0-28.07-12.58-28.07-28.07v-88.45c0-15.49,12.58-28.07,28.07-28.07Z" transform="translate(952.85 127.15) rotate(90)"/>
  </g>
</svg>