<?xml version="1.0" encoding="UTF-8"?>
<svg id="Capa_1" data-name="Capa 1" xmlns="http://www.w3.org/2000/svg" viewBox="0 0 1080 1080">
  <defs>
    <style>
      .cls-1 {
        fill: #0bbf9a;
      }

      .cls-2 {
        fill: #f8fafc;
      }
    </style>
  </defs>
  <rect class="cls-1" y="0" width="1080" height="1080"/>
  <path class="cls-2" d="M466.28,705.65v-159.82c0-3.4-2.82-6.15-6.31-6.15h-176.29c-4.81,0-8.7-3.79-8.7-8.48v-159.2c0-4.68,3.9-8.48,8.7-8.48h174.06c4.81,0,8.7,3.79,8.7,8.48v161.53c0,3.39,2.83,6.15,6.31,6.15h168.31c3.49,0,6.31-2.75,6.31-6.15v-161.24c0-4.68,3.9-8.48,8.7-8.48h140.24c4.81,0,8.7,3.8,8.7,8.48v159.2c0,4.68-3.9,8.48-8.7,8.48h-142.27c-3.49,0-6.31,2.75-6.31,6.15v159.85c0,2.78-1.13,5.45-3.15,7.42h0c-2.02,1.97-4.76,3.08-7.62,3.08h-159.58c-2.87,0-5.63-1.08-7.69-3.02h0c-2.18-2.04-3.41-4.85-3.41-7.8Z"/>
</svg>