<?xml version="1.0" encoding="UTF-8"?>
<svg id="Capa_1" data-name="Capa 1" xmlns="http://www.w3.org/2000/svg" viewBox="0 0 1075.58 1075.58">
  <defs>
    <style>
      .cls-1 {
        fill: #2563eb;
      }

      .cls-2 {
        fill: #f8fafc;
      }
    </style>
  </defs>
  <rect class="cls-1" x="-2.21" y="-2.21" width="1080" height="1080"/>
  <g>
    <path class="cls-2" d="M379.6,365.12h98.57c15.49,0,28.07,12.58,28.07,28.07v88.45c0,15.49-12.58,28.07-28.07,28.07h-98.57c-15.49,0-28.07-12.58-28.07-28.07v-88.45c0-15.49,12.58-28.07,28.07-28.07Z"/>
    <path class="cls-2" d="M515.26,472.09h162.51c25.54,0,46.28,20.74,46.28,46.28v145.82c0,25.54-20.74,46.28-46.28,46.28h-162.51c-25.54,0-46.27-20.73-46.27-46.27v-145.82c0-25.54,20.73-46.27,46.27-46.27Z"/>
  </g>
</svg>