<?xml version="1.0" encoding="UTF-8"?>
<svg id="Capa_1" data-name="Capa 1" xmlns="http://www.w3.org/2000/svg" viewBox="0 0 1080 1080">
  <defs>
    <style>
      .cls-1 {
        fill: #3b82f6;
      }

      .cls-2 {
        fill: #f8fafc;
      }
    </style>
  </defs>
  <rect class="cls-1" y="0" width="1080" height="1080"/>
  <g>
    <path class="cls-2" d="M540,718.85c-98.62,0-178.85-80.23-178.85-178.85s80.23-178.85,178.85-178.85,178.85,80.23,178.85,178.85-80.23,178.85-178.85,178.85ZM540,394.71c-80.11,0-145.29,65.17-145.29,145.29s65.18,145.29,145.29,145.29,145.29-65.18,145.29-145.29-65.17-145.29-145.29-145.29Z"/>
    <path class="cls-2" d="M530.53,499.59h23.88c15.72,0,28.47,12.76,28.47,28.47v23.88c0,15.72-12.76,28.47-28.47,28.47h-23.88c-15.72,0-28.47-12.76-28.47-28.47v-23.88c0-15.71,12.76-28.47,28.47-28.47Z"/>
  </g>
</svg>