<?xml version="1.0" encoding="UTF-8"?>
<svg id="Capa_1" data-name="Capa 1" xmlns="http://www.w3.org/2000/svg" viewBox="0 0 1080 1080">
  <defs>
    <style>
      .cls-1 {
        fill: #07866d;
      }

      .cls-2 {
        fill: #f8fafc;
      }
    </style>
  </defs>
  <rect class="cls-1" width="1080" height="1080"/>
  <g>
    <path class="cls-2" d="M386.29,467.71h98.57c15.49,0,28.07,12.58,28.07,28.07v88.45c0,15.49-12.58,28.07-28.07,28.07h-98.57c-15.49,0-28.07-12.58-28.07-28.07v-88.45c0-15.49,12.58-28.07,28.07-28.07Z"/>
    <path class="cls-2" d="M595.14,467.71h98.57c15.49,0,28.07,12.58,28.07,28.07v88.45c0,15.49-12.58,28.07-28.07,28.07h-98.57c-15.49,0-28.07-12.58-28.07-28.07v-88.45c0-15.49,12.58-28.07,28.07-28.07Z"/>
  </g>
  <path class="cls-2" d="M721.78,362.81v29.92c0,15.51-12.56,28.07-28.06,28.07h-98.58c-15.5,0-28.07-12.56-28.07-28.07v-29.92h154.71Z"/>
  <path class="cls-2" d="M512.93,697.99v17.16h-154.71v-17.16c0-15.5,12.57-28.07,28.07-28.07h98.57c15.51,0,28.07,12.57,28.07,28.07Z"/>
</svg>