<?xml version="1.0" encoding="UTF-8"?>
<svg id="Capa_1" data-name="Capa 1" xmlns="http://www.w3.org/2000/svg" viewBox="0 0 1075.58 1075.58">
  <defs>
    <style>
      .cls-1 {
        fill: #0e1117;
      }

      .cls-2 {
        fill: #f87171;
      }

      .cls-3 {
        fill: #f8fafc;
      }
    </style>
  </defs>
  <rect class="cls-1" x="-2.21" y="-2.21" width="1080" height="1080"/>
  <g>
    <path class="cls-2" d="M832.98,455.11v159.66c0,2.79-1.08,5.47-3.02,7.48l-.24.25c-2.03,2.1-4.83,3.29-7.75,3.29h-155.27c-2.78,0-5.45-1.13-7.42-3.15h0c-1.97-2.02-3.08-4.76-3.08-7.62v-159.58c0-2.87,1.08-5.63,3.02-7.69h0c2.04-2.18,4.85-3.41,7.8-3.41h155.2c2.95,0,5.78,1.21,7.81,3.35h0c1.9,2,2.96,4.66,2.96,7.42Z"/>
    <path class="cls-2" d="M419.38,455.11v159.66c0,2.79-1.08,5.47-3.02,7.48l-.24.25c-2.03,2.1-4.83,3.29-7.75,3.29h-155.27c-2.78,0-5.45-1.13-7.42-3.15h0c-1.97-2.02-3.08-4.76-3.08-7.62v-159.58c0-2.87,1.08-5.63,3.02-7.69h0c2.04-2.18,4.85-3.41,7.8-3.41h155.2c2.95,0,5.78,1.21,7.81,3.35h0c1.9,2,2.96,4.66,2.96,7.42Z"/>
    <path class="cls-3" d="M536.35,312.05h10.13c39.9,0,72.29,32.39,72.29,72.29h0c0,39.9-32.39,72.29-72.29,72.29h-10.13c-39.9,0-72.29-32.39-72.29-72.29h0c0-39.9,32.39-72.29,72.29-72.29Z"/>
    <path class="cls-3" d="M536.35,618.94h10.13c39.9,0,72.29,32.39,72.29,72.29h0c0,39.9-32.39,72.29-72.29,72.29h-10.13c-39.9,0-72.29-32.39-72.29-72.29h0c0-39.9,32.39-72.29,72.29-72.29Z"/>
  </g>
</svg>