<?xml version="1.0" encoding="UTF-8"?>
<svg id="Capa_1" data-name="Capa 1" xmlns="http://www.w3.org/2000/svg" viewBox="0 0 1075.58 1075.58">
  <defs>
    <style>
      .cls-1 {
        fill: #0e1117;
      }

      .cls-2 {
        fill: #3b82f6;
      }

      .cls-3 {
        fill: #f8fafc;
      }
    </style>
  </defs>
  <rect class="cls-1" x="-2.21" y="-2.21" width="1080" height="1080"/>
  <g>
    <path class="cls-3" d="M480.46,469.1h235.12c4.11,0,8.06,1.6,11.02,4.45l.37.36c3.1,2.99,4.85,7.11,4.85,11.41v228.66c0,4.09-1.67,8.03-4.64,10.93h0c-2.98,2.9-7.01,4.53-11.22,4.53h-235c-4.22,0-8.28-1.59-11.33-4.44h0c-3.2-3-5.02-7.15-5.02-11.48v-228.55c0-4.35,1.78-8.51,4.94-11.5h0c2.95-2.8,6.86-4.36,10.93-4.36Z"/>
    <path class="cls-2" d="M416.06,346.14h10.12c39.9,0,72.29,32.39,72.29,72.29h0c0,39.9-32.39,72.29-72.29,72.29h-10.12c-39.9,0-72.29-32.39-72.29-72.29h0c0-39.9,32.39-72.29,72.29-72.29Z"/>
  </g>
</svg>