<?xml version="1.0" encoding="UTF-8"?>
<svg id="Capa_1" data-name="Capa 1" xmlns="http://www.w3.org/2000/svg" viewBox="0 0 1080 1080">
  <defs>
    <style>
      .cls-1 {
        fill: #0e1117;
      }

      .cls-2 {
        fill: #0bbf9a;
      }

      .cls-3 {
        fill: #f8fafc;
      }
    </style>
  </defs>
  <rect class="cls-1" y="0" width="1080" height="1080"/>
  <path class="cls-3" d="M384.39,361.53h98.57c15.49,0,28.07,12.58,28.07,28.07v88.45c0,15.49-12.58,28.07-28.07,28.07h-98.57c-15.49,0-28.07-12.58-28.07-28.07v-88.45c0-15.49,12.58-28.07,28.07-28.07Z"/>
  <path class="cls-3" d="M597.04,573.88h98.57c15.49,0,28.07,12.58,28.07,28.07v88.45c0,15.49-12.58,28.07-28.07,28.07h-98.57c-15.49,0-28.07-12.58-28.07-28.07v-88.45c0-15.49,12.58-28.07,28.07-28.07Z"/>
  <path class="cls-2" d="M717.34,323.2h10.13c39.9,0,72.29,32.39,72.29,72.29h0c0,39.9-32.39,72.29-72.29,72.29h-10.13c-39.9,0-72.29-32.39-72.29-72.29h0c0-39.9,32.39-72.29,72.29-72.29Z"/>
  <path class="cls-2" d="M366.02,611.17h10.13c39.9,0,72.29,32.39,72.29,72.29h0c0,39.9-32.39,72.29-72.29,72.29h-10.13c-39.9,0-72.29-32.39-72.29-72.29h0c0-39.9,32.39-72.29,72.29-72.29Z"/>
</svg>