<?xml version="1.0" encoding="UTF-8"?>
<svg id="Capa_1" data-name="Capa 1" xmlns="http://www.w3.org/2000/svg" viewBox="0 0 1080 1080">
  <defs>
    <style>
      .cls-1 {
        fill: #3b82f6;
      }

      .cls-2 {
        fill: #f8fafc;
      }
    </style>
  </defs>
  <rect class="cls-1" y="0" width="1080" height="1080"/>
  <path class="cls-2" d="M702.98,598.64h-99.62s-.08.01-.12.01c0-.04.01-.08.01-.12v-221.97c0-8.02-6.5-14.52-14.52-14.52h-211.72c-8.02,0-14.52,6.5-14.52,14.52v212.63c0,8.02,6.5,14.52,14.52,14.52h221.06s.08-.01.12-.01c0,.04-.01.08-.01.12v99.62c0,8.02,6.5,14.52,14.52,14.52h90.27c8.02,0,14.52-6.5,14.52-14.52v-90.27c0-8.02-6.5-14.52-14.52-14.52Z"/>
</svg>