<?xml version="1.0" encoding="UTF-8"?>
<svg id="Capa_1" data-name="Capa 1" xmlns="http://www.w3.org/2000/svg" viewBox="0 0 1080 1080">
  <defs>
    <style>
      .cls-1 {
        fill: #1d4ed8;
      }

      .cls-2 {
        fill: #f8fafc;
      }
    </style>
  </defs>
  <rect class="cls-1" y="0" width="1080" height="1080"/>
  <g>
    <path class="cls-2" d="M535.19,314.77h10.13c39.9,0,72.29,32.39,72.29,72.29h0c0,39.9-32.39,72.29-72.29,72.29h-10.13c-39.9,0-72.29-32.39-72.29-72.29h0c0-39.9,32.39-72.29,72.29-72.29Z"/>
    <path class="cls-2" d="M535.19,621.66h10.13c39.9,0,72.29,32.39,72.29,72.29h0c0,39.9-32.39,72.29-72.29,72.29h-10.13c-39.9,0-72.29-32.39-72.29-72.29h0c0-39.9,32.39-72.29,72.29-72.29Z"/>
    <path class="cls-2" d="M706.77,467.45h10.13c39.9,0,72.29,32.39,72.29,72.29h0c0,39.9-32.39,72.29-72.29,72.29h-10.13c-39.9,0-72.29-32.39-72.29-72.29h0c0-39.9,32.39-72.29,72.29-72.29Z"/>
    <path class="cls-2" d="M348.81,467.45h10.13c39.9,0,72.29,32.39,72.29,72.29h0c0,39.9-32.39,72.29-72.29,72.29h-10.13c-39.9,0-72.29-32.39-72.29-72.29h0c0-39.9,32.39-72.29,72.29-72.29Z"/>
  </g>
</svg>